<svg height="448pt" viewBox="-8 0 448 448" width="448pt" xmlns="http://www.w3.org/2000/svg"><path d="m215.464844 379.71875c-3.429688-6.371094-6.214844-13.070312-8.3125-20l-25.089844-6.269531c-3.5625-.890625-6.0625-4.089844-6.0625-7.761719v-35.34375c0-3.671875 2.5-6.871094 6.0625-7.757812l25.089844-6.273438c2.097656-6.925781 4.882812-13.628906 8.3125-20l-13.3125-22.183594c-1.890625-3.148437-1.398438-7.179687 1.199218-9.777344l24.96875-24.96875c2.597657-2.59375 6.628907-3.089843 9.777344-1.199218l22.183594 13.3125c6.371094-3.429688 13.070312-6.214844 20-8.3125l6.269531-25.085938c.890625-3.5625 4.089844-6.066406 7.761719-6.066406h35.3125c3.671875 0 6.871094 2.503906 7.757812 6.066406l6.273438 25.085938c3.804688 1.144531 7.542969 2.496094 11.199219 4.046875 3.015625 1.296875 5.976562 2.722656 8.855469 4.265625l20.289062-12.207032v-203.289062c0-8.835938-7.164062-16-16-16h-32c-8.835938 0-16 7.164062-16 16v24c0 8.835938 7.164062 16 16 16s16-7.164062 16-16v-8h-16v-16h24c4.417969 0 8 3.582031 8 8v16c0 17.671875-14.328125 32-32 32h-304v272h96c1.238281-.011719 2.460938.261719 3.574219.800781l32 16c2.71875 1.351563 4.433593 4.125 4.433593 7.160157 0 3.03125-1.714843 5.804687-4.433593 7.160156l-32 16c-1.105469.566406-2.328125.867187-3.574219.878906h-96v24h175.671875l-4.320313-4.320312c-2.597656-2.597657-3.089843-6.628907-1.199218-9.777344zm136.535156-299.71875h16v128h-16zm-168 152h-80v-16h80zm144-56h-96v-16h96zm-96-32v-16h16v16zm96 0h-64v-16h64zm-16-48h16v16h-16zm-254.222656 25.777344c30.597656-30.675782 79.007812-34.414063 113.949218-8.800782l14.617188-14.617187c1.496094-1.503906 3.53125-2.355469 5.65625-2.359375h104v16h-100.6875l-11.535156 11.535156c15.542968 16.292969 24.214844 37.945313 24.222656 60.464844 0 4.417969-3.582031 8-8 8h-80c-2.121094 0-4.15625-.84375-5.65625-2.34375l-56.566406-56.566406c-3.125-3.125-3.125-8.191406 0-11.3125zm30.222656 94.222656v16h-16v-16zm72 80h-104v-16h104zm-104-32v-16h128v16zm0 0"/><path d="m191.550781 176c-1.722656-15.429688-8.40625-29.882812-19.046875-41.191406l-22.847656 22.847656-11.3125-11.3125 21.921875-21.917969c-26.054687-17.71875-60.617187-16.375-85.210937 3.316407l48.257812 48.257812zm0 0"/><path d="m16 56h292.449219c-2.878907-4.84375-4.417969-10.367188-4.449219-16v-24c.03125-5.632812 1.570312-11.15625 4.449219-16h-292.449219c-8.835938 0-16 7.164062-16 16v24c0 8.835938 7.164062 16 16 16zm0 0"/><path d="m104 360h-96c-4.417969 0-8 3.582031-8 8s3.582031 8 8 8h96zm0 0"/><path d="m126.113281 360h-6.113281v16h6.113281l16-8zm0 0"/><path d="m408.457031 310.703125c-2.859375-.710937-5.097656-2.933594-5.824219-5.792969-2.203124-8.667968-5.644531-16.972656-10.226562-24.652344-1.507812-2.53125-1.507812-5.683593 0-8.210937l12.496094-20.800781-16.101563-16.167969-20.800781 12.496094c-2.53125 1.515625-5.6875 1.515625-8.214844 0-7.679687-4.578125-15.980468-8.019531-24.648437-10.214844-2.855469-.726563-5.082031-2.964844-5.792969-5.824219l-5.9375-23.535156h-22.8125l-5.890625 23.542969c-.710937 2.859375-2.933594 5.097656-5.792969 5.824219-8.667968 2.203124-16.972656 5.644531-24.652344 10.226562-2.53125 1.507812-5.683593 1.507812-8.210937 0l-20.800781-12.496094-16.167969 16.101563 12.496094 20.800781c1.511719 2.527344 1.511719 5.679688 0 8.207031-4.578125 7.683594-8.023438 15.988281-10.222657 24.65625-.726562 2.855469-2.964843 5.082031-5.824218 5.792969l-23.527344 5.9375v22.8125l23.542969 5.890625c2.859375.710937 5.097656 2.933594 5.824219 5.792969 2.203124 8.667968 5.644531 16.972656 10.226562 24.652344 1.507812 2.53125 1.507812 5.683593 0 8.210937l-12.496094 20.800781 16.101563 16.167969 20.800781-12.496094c2.527344-1.511719 5.679688-1.511719 8.207031 0 7.683594 4.578125 15.988281 8.023438 24.65625 10.222657 2.855469.726562 5.082031 2.964843 5.792969 5.824218l5.9375 23.527344h22.8125l5.890625-23.542969c.710937-2.859375 2.933594-5.097656 5.792969-5.824219 8.667968-2.203124 16.972656-5.644531 24.652344-10.226562 2.53125-1.507812 5.683593-1.507812 8.210937 0l20.800781 12.496094 16.167969-16.101563-12.496094-20.800781c-1.511719-2.527344-1.511719-5.679688 0-8.207031 4.578125-7.683594 8.023438-15.988281 10.222657-24.65625.726562-2.855469 2.964843-5.082031 5.824218-5.792969l23.527344-5.9375v-22.8125zm-96.457031 81.296875c-35.347656 0-64-28.652344-64-64s28.652344-64 64-64 64 28.652344 64 64c-.039062 35.328125-28.671875 63.960938-64 64zm0 0"/><path d="m360 328c0 26.507812-21.492188 48-48 48s-48-21.492188-48-48 21.492188-48 48-48 48 21.492188 48 48zm0 0"/></svg>