<svg width="8" height="30" viewBox="0 0 8 30" fill="none" xmlns="http://www.w3.org/2000/svg">
<path fill-rule="evenodd" clip-rule="evenodd" d="M4 0C6.20917 0 8 1.83153 8 4.09088C8 6.35022 6.20917 8.18186 4 8.18186C1.79082 8.18186 0 6.35022 0 4.09088C0 1.83153 1.79082 0 4 0ZM4 10.9091C6.20917 10.9091 8 12.7407 8 15C8 17.2594 6.20917 19.0909 4 19.0909C1.79082 19.0909 0 17.2594 0 15C0 12.7407 1.79082 10.9091 4 10.9091ZM8 25.9091C8 23.6498 6.20917 21.8182 4 21.8182C1.79082 21.8182 0 23.6498 0 25.9091C0 28.1685 1.79082 30 4 30C6.20917 30 8 28.1685 8 25.9091Z" fill="#F2F5FA"/>
</svg>
