<svg width="14" height="17" viewBox="0 0 14 17" fill="none" xmlns="http://www.w3.org/2000/svg">
<mask id="path-1-inside-1" fill="white">
<path fill-rule="evenodd" clip-rule="evenodd" d="M5.36536 1.02601H8.30151V1.50409H9.36177V0.959106C9.36195 0.430246 8.91749 -0.000213623 8.37118 -0.000213623H5.29569C4.74938 -0.000213623 4.30493 0.430246 4.30493 0.959106V1.50409H5.36536V1.02601ZM11.8105 5.56965H1.85632C1.58357 5.56965 1.36886 5.79487 1.39082 6.05797L2.22299 16.0158C2.2694 16.5718 2.74846 16.9998 3.3242 16.9998H10.3425C10.9181 16.9998 11.3974 16.5718 11.4437 16.0156L12.2759 6.05797C12.298 5.79487 12.0833 5.56965 11.8105 5.56965ZM4.26654 15.9377C4.25548 15.9384 4.24439 15.9388 4.23333 15.9388C3.95532 15.9388 3.72198 15.7293 3.70481 15.4572L3.18322 7.28233C3.16532 6.99943 3.38759 6.75607 3.67981 6.73865C3.9711 6.72151 4.22372 6.93617 4.24162 7.21925L4.76303 15.394C4.78112 15.6769 4.55876 15.9202 4.26654 15.9377ZM7.36952 15.4257C7.36952 15.7089 7.1322 15.9386 6.83934 15.9386C6.54648 15.9386 6.30908 15.7089 6.30908 15.4257V7.25073C6.30908 6.96733 6.54648 6.73765 6.83934 6.73765C7.13212 6.73765 7.36952 6.96733 7.36952 7.25073V15.4257ZM10.4836 7.28089L9.98577 15.4558C9.96926 15.7284 9.73545 15.9386 9.45698 15.9386C9.44656 15.9386 9.43585 15.9384 9.42533 15.9379C9.13303 15.9211 8.91003 15.6783 8.92728 15.3954L9.42516 7.22051C9.44223 6.93763 9.69237 6.72175 9.98541 6.73853C10.2778 6.75511 10.5008 6.99811 10.4836 7.28089ZM13.6441 3.98625L13.2959 2.97623C13.2041 2.70993 12.9465 2.53031 12.6563 2.53031H1.0105C0.72031 2.53031 0.462709 2.70993 0.370994 2.97623L0.0227662 3.98625C-0.0444008 4.18119 0.0430641 4.37983 0.206196 4.47891C0.27253 4.51923 0.35124 4.54349 0.437787 4.54349H13.2292C13.3155 4.54349 13.3944 4.51923 13.4608 4.47877C13.6238 4.37965 13.7113 4.18099 13.6441 3.98625Z"/>
</mask>
<path fill-rule="evenodd" clip-rule="evenodd" d="M5.36536 1.02601H8.30151V1.50409H9.36177V0.959106C9.36195 0.430246 8.91749 -0.000213623 8.37118 -0.000213623H5.29569C4.74938 -0.000213623 4.30493 0.430246 4.30493 0.959106V1.50409H5.36536V1.02601ZM11.8105 5.56965H1.85632C1.58357 5.56965 1.36886 5.79487 1.39082 6.05797L2.22299 16.0158C2.2694 16.5718 2.74846 16.9998 3.3242 16.9998H10.3425C10.9181 16.9998 11.3974 16.5718 11.4437 16.0156L12.2759 6.05797C12.298 5.79487 12.0833 5.56965 11.8105 5.56965ZM4.26654 15.9377C4.25548 15.9384 4.24439 15.9388 4.23333 15.9388C3.95532 15.9388 3.72198 15.7293 3.70481 15.4572L3.18322 7.28233C3.16532 6.99943 3.38759 6.75607 3.67981 6.73865C3.9711 6.72151 4.22372 6.93617 4.24162 7.21925L4.76303 15.394C4.78112 15.6769 4.55876 15.9202 4.26654 15.9377ZM7.36952 15.4257C7.36952 15.7089 7.1322 15.9386 6.83934 15.9386C6.54648 15.9386 6.30908 15.7089 6.30908 15.4257V7.25073C6.30908 6.96733 6.54648 6.73765 6.83934 6.73765C7.13212 6.73765 7.36952 6.96733 7.36952 7.25073V15.4257ZM10.4836 7.28089L9.98577 15.4558C9.96926 15.7284 9.73545 15.9386 9.45698 15.9386C9.44656 15.9386 9.43585 15.9384 9.42533 15.9379C9.13303 15.9211 8.91003 15.6783 8.92728 15.3954L9.42516 7.22051C9.44223 6.93763 9.69237 6.72175 9.98541 6.73853C10.2778 6.75511 10.5008 6.99811 10.4836 7.28089ZM13.6441 3.98625L13.2959 2.97623C13.2041 2.70993 12.9465 2.53031 12.6563 2.53031H1.0105C0.72031 2.53031 0.462709 2.70993 0.370994 2.97623L0.0227662 3.98625C-0.0444008 4.18119 0.0430641 4.37983 0.206196 4.47891C0.27253 4.51923 0.35124 4.54349 0.437787 4.54349H13.2292C13.3155 4.54349 13.3944 4.51923 13.4608 4.47877C13.6238 4.37965 13.7113 4.18099 13.6441 3.98625Z" fill="#323D41"/>
<path d="M5.36536 1.02601V0.0260063H4.36536V1.02601H5.36536ZM8.30151 1.02601H9.30151V0.0260063H8.30151V1.02601ZM8.30151 1.50409H7.30151V2.50409H8.30151V1.50409ZM9.36177 1.50409V2.50409H10.3618V1.50409H9.36177ZM9.36177 0.959106L8.36177 0.958753V0.959106H9.36177ZM4.30493 1.50409H3.30493V2.50409H4.30493V1.50409ZM5.36536 1.50409V2.50409H6.36536V1.50409H5.36536ZM1.39082 6.05797L0.394291 6.14116L0.394298 6.14124L1.39082 6.05797ZM2.22299 16.0158L3.21953 15.9326L3.21952 15.9325L2.22299 16.0158ZM11.4437 16.0156L10.4472 15.9324L10.4472 15.9326L11.4437 16.0156ZM12.2759 6.05797L11.2794 5.97407L11.2793 5.97469L12.2759 6.05797ZM3.70481 15.4572L4.70283 15.3942L4.70278 15.3935L3.70481 15.4572ZM3.18322 7.28233L2.18521 7.34548L2.18525 7.346L3.18322 7.28233ZM3.67981 6.73865L3.62107 5.74037L3.6203 5.74042L3.67981 6.73865ZM4.24162 7.21925L3.24362 7.28236L3.24365 7.2829L4.24162 7.21925ZM4.76303 15.394L3.76506 15.4577L3.76507 15.4578L4.76303 15.394ZM9.98577 15.4558L8.98762 15.395L8.9876 15.3953L9.98577 15.4558ZM9.42533 15.9379L9.36788 16.9363L9.37571 16.9367L9.38355 16.9371L9.42533 15.9379ZM8.92728 15.3954L9.92543 15.4563L9.92543 15.4562L8.92728 15.3954ZM9.42516 7.22051L10.4233 7.2813L10.4233 7.28073L9.42516 7.22051ZM9.98541 6.73853L9.92825 7.73689L9.9288 7.73692L9.98541 6.73853ZM13.2959 2.97623L14.2413 2.6503L14.2413 2.65027L13.2959 2.97623ZM0.370994 2.97623L1.31638 3.30217L1.31649 3.30186L0.370994 2.97623ZM0.0227662 3.98625L-0.922623 3.6603L-0.922687 3.66049L0.0227662 3.98625ZM0.206196 4.47891L0.725605 3.62438L0.72531 3.6242L0.206196 4.47891ZM13.4608 4.47877L12.9413 3.6243L12.9401 3.62498L13.4608 4.47877ZM5.36536 2.02601H8.30151V0.0260063H5.36536V2.02601ZM7.30151 1.02601V1.50409H9.30151V1.02601H7.30151ZM8.30151 2.50409H9.36177V0.504086H8.30151V2.50409ZM10.3618 1.50409V0.959106H8.36177V1.50409H10.3618ZM10.3618 0.95946C10.3622 -0.152132 9.43911 -1.00021 8.37118 -1.00021V0.999786C8.37797 0.999786 8.37801 1.00168 8.37572 0.999472C8.37451 0.998298 8.37107 0.994539 8.36769 0.986822C8.36397 0.978313 8.36176 0.968073 8.36177 0.958753L10.3618 0.95946ZM8.37118 -1.00021H5.29569V0.999786H8.37118V-1.00021ZM5.29569 -1.00021C4.22766 -1.00021 3.30493 -0.152113 3.30493 0.959106H5.30493C5.30493 0.968368 5.30273 0.978542 5.29904 0.986987C5.29569 0.994643 5.29228 0.99836 5.29109 0.999509C5.28991 1.00065 5.28953 1.00065 5.29001 1.00046C5.29014 1.00041 5.29049 1.00027 5.29115 1.00014C5.29177 1.00002 5.2932 0.999786 5.29569 0.999786V-1.00021ZM3.30493 0.959106V1.50409H5.30493V0.959106H3.30493ZM4.30493 2.50409H5.36536V0.504086H4.30493V2.50409ZM6.36536 1.50409V1.02601H4.36536V1.50409H6.36536ZM11.8105 4.56965H1.85632V6.56965H11.8105V4.56965ZM1.85632 4.56965C1.03367 4.56965 0.32077 5.26048 0.394291 6.14116L2.38736 5.97477C2.41695 6.32926 2.13347 6.56965 1.85632 6.56965V4.56965ZM0.394298 6.14124L1.22646 16.099L3.21952 15.9325L2.38735 5.97469L0.394298 6.14124ZM1.22646 16.0989C1.31829 17.1991 2.25489 17.9998 3.3242 17.9998V15.9998C3.28699 15.9998 3.2593 15.9866 3.24142 15.9706C3.224 15.9551 3.22029 15.9418 3.21953 15.9326L1.22646 16.0989ZM3.3242 17.9998H10.3425V15.9998H3.3242V17.9998ZM10.3425 17.9998C11.4116 17.9998 12.3486 17.1992 12.4403 16.0987L10.4472 15.9326C10.4464 15.9417 10.4427 15.955 10.4253 15.9706C10.4074 15.9866 10.3796 15.9998 10.3425 15.9998V17.9998ZM12.4402 16.0989L13.2724 6.14124L11.2793 5.97469L10.4472 15.9324L12.4402 16.0989ZM13.2723 6.14186C13.3465 5.26051 12.633 4.56965 11.8105 4.56965V6.56965C11.5336 6.56965 11.2495 6.32923 11.2794 5.97407L13.2723 6.14186ZM4.21061 14.9393C4.20951 14.9394 4.21871 14.9388 4.23333 14.9388V16.9388C4.27007 16.9388 4.30145 16.9374 4.32248 16.9362L4.21061 14.9393ZM4.23333 14.9388C4.45151 14.9388 4.6848 15.1085 4.70283 15.3942L2.7068 15.5202C2.75917 16.3501 3.45914 16.9388 4.23333 16.9388V14.9388ZM4.70278 15.3935L4.18119 7.21865L2.18525 7.346L2.70684 15.5209L4.70278 15.3935ZM4.18122 7.21918C4.2002 7.51904 3.96918 7.72317 3.73931 7.73687L3.6203 5.74042C2.80601 5.78896 2.13044 6.47982 2.18521 7.34548L4.18122 7.21918ZM3.73855 7.73692C3.51397 7.75013 3.26256 7.5819 3.24362 7.28236L5.23963 7.15614C5.18488 6.29043 4.42823 5.69288 3.62107 5.74037L3.73855 7.73692ZM3.24365 7.2829L3.76506 15.4577L5.761 15.3304L5.23959 7.15559L3.24365 7.2829ZM3.76507 15.4578C3.74583 15.157 3.97763 14.9533 4.2067 14.9395L4.32639 16.936C5.13989 16.8872 5.8164 16.1968 5.76099 15.3302L3.76507 15.4578ZM6.36952 15.4257C6.36952 15.1259 6.61121 14.9386 6.83934 14.9386V16.9386C7.65319 16.9386 8.36952 16.292 8.36952 15.4257H6.36952ZM6.83934 14.9386C7.06727 14.9386 7.30908 15.1257 7.30908 15.4257H5.30908C5.30908 16.2922 6.0257 16.9386 6.83934 16.9386V14.9386ZM7.30908 15.4257V7.25073H5.30908V15.4257H7.30908ZM7.30908 7.25073C7.30908 7.55045 7.06742 7.73765 6.83934 7.73765V5.73765C6.02555 5.73765 5.30908 6.38421 5.30908 7.25073H7.30908ZM6.83934 7.73765C6.61107 7.73765 6.36952 7.55035 6.36952 7.25073H8.36952C8.36952 6.38431 7.65316 5.73765 6.83934 5.73765V7.73765ZM6.36952 7.25073V15.4257H8.36952V7.25073H6.36952ZM9.4855 7.2201L8.98762 15.395L10.9839 15.5166L11.4818 7.34168L9.4855 7.2201ZM8.9876 15.3953C9.00496 15.1085 9.23897 14.9386 9.45698 14.9386V16.9386C10.2319 16.9386 10.9336 16.3484 10.9839 15.5162L8.9876 15.3953ZM9.45698 14.9386C9.46274 14.9386 9.46616 14.9388 9.46711 14.9388L9.38355 16.9371C9.40555 16.938 9.43038 16.9386 9.45698 16.9386V14.9386ZM9.48278 14.9396C9.71161 14.9527 9.94377 15.1556 9.92543 15.4563L7.92914 15.3346C7.87628 16.2011 8.55446 16.8895 9.36788 16.9363L9.48278 14.9396ZM9.92543 15.4562L10.4233 7.2813L8.42701 7.15972L7.92913 15.3347L9.92543 15.4562ZM10.4233 7.28073C10.4055 7.57729 10.1556 7.74991 9.92825 7.73689L10.0426 5.74016C9.22917 5.69358 8.479 6.29796 8.42698 7.16028L10.4233 7.28073ZM9.9288 7.73692C9.69888 7.72388 9.46726 7.52049 9.48549 7.22028L11.4818 7.34149C11.5344 6.47572 10.8567 5.78633 10.042 5.74013L9.9288 7.73692ZM14.5895 3.66032L14.2413 2.6503L12.3505 3.30216L12.6987 4.31218L14.5895 3.66032ZM14.2413 2.65027C14.0048 1.96443 13.3557 1.53031 12.6563 1.53031V3.53031C12.5372 3.53031 12.4033 3.45543 12.3505 3.30218L14.2413 2.65027ZM12.6563 1.53031H1.0105V3.53031H12.6563V1.53031ZM1.0105 1.53031C0.311113 1.53031 -0.338174 1.9644 -0.574502 2.65059L1.31649 3.30186C1.26359 3.45545 1.12951 3.53031 1.0105 3.53031V1.53031ZM-0.574395 2.65028L-0.922623 3.6603L0.968155 4.31219L1.31638 3.30217L-0.574395 2.65028ZM-0.922687 3.66049C-1.15785 4.34302 -0.838137 5.01461 -0.312918 5.33361L0.72531 3.6242C0.924265 3.74504 1.06905 4.01936 0.968219 4.312L-0.922687 3.66049ZM-0.313213 5.33343C-0.0972252 5.46472 0.160149 5.54349 0.437787 5.54349V3.54349C0.542331 3.54349 0.642285 3.57374 0.725605 3.62438L-0.313213 5.33343ZM0.437787 5.54349H13.2292V3.54349H0.437787V5.54349ZM13.2292 5.54349C13.5065 5.54349 13.7646 5.46476 13.9814 5.33255L12.9401 3.62498C13.0243 3.57369 13.1246 3.54349 13.2292 3.54349V5.54349ZM13.9803 5.33323C14.5047 5.01439 14.825 4.34295 14.5894 3.66012L12.6988 4.31238C12.5976 4.01903 12.7429 3.7449 12.9413 3.6243L13.9803 5.33323Z" fill="#323D41" mask="url(#path-1-inside-1)"/>
</svg>
