<svg width="18" height="19" viewBox="0 0 18 19" fill="none" xmlns="http://www.w3.org/2000/svg">
<path fill-rule="evenodd" clip-rule="evenodd" d="M11.2185 2.85238V1.48816H6.78142V2.85238H11.2185ZM5.26886 2.85238V1.24006C5.26886 0.556302 5.83428 -0.00012207 6.52934 -0.00012207H11.4706C12.1655 -0.00012207 12.731 0.556302 12.731 1.24006V2.85238H18V4.34065H16.3983L15.1479 18.3208C15.1139 18.705 14.7866 18.9999 14.3946 18.9999H3.57972C3.18776 18.9999 2.86077 18.7053 2.82654 18.321L1.57611 4.34065H0V2.85238H5.26886ZM13.7019 17.5116H4.27228L3.09448 4.34065H14.88L13.7019 17.5116ZM10.8408 15.3016L12.3524 15.3559L12.6801 6.55071L11.1685 6.49613L10.8408 15.3016ZM5.31953 6.5504L5.64726 15.3559L7.1588 15.3014L6.83115 6.49586L5.31953 6.5504ZM8.24359 15.3289H9.75622V6.52338H8.24359V15.3289Z" fill="#F2F5FA"/>
</svg>
