<svg width="17" height="17" viewBox="0 0 17 17" fill="none" xmlns="http://www.w3.org/2000/svg">
<mask id="path-1-inside-1" fill="white">
<path fill-rule="evenodd" clip-rule="evenodd" d="M13.6194 8.92426C13.2456 8.92426 12.9432 9.22576 12.9432 9.59709V14.9809C12.9432 15.3518 12.6404 15.6538 12.2671 15.6538H2.80008C2.42676 15.6538 2.12385 15.3518 2.12385 14.9809V5.55933C2.12385 5.1886 2.42676 4.88642 2.80008 4.88642H8.20985C8.58371 4.88642 8.88599 4.58487 8.88599 4.21346C8.88599 3.84199 8.58371 3.54042 8.20985 3.54042H2.80008C1.6816 3.54042 0.771484 4.44629 0.771484 5.55933V14.9809C0.771484 16.094 1.6816 16.9999 2.80008 16.9999H12.2671C13.3856 16.9999 14.2957 16.094 14.2957 14.9809V9.59709C14.2957 9.22505 13.9934 8.92426 13.6194 8.92426ZM7.11158 8.31123C7.06415 8.35829 7.03242 8.4181 7.01895 8.48269L6.54082 10.8624C6.51857 10.9727 6.55374 11.0864 6.63354 11.1665C6.69776 11.2304 6.7843 11.2647 6.87297 11.2647C6.89446 11.2647 6.9169 11.2628 6.93913 11.2581L9.32962 10.7824C9.39585 10.7688 9.4561 10.7373 9.50271 10.69L14.853 5.36551L12.4626 2.98671L7.11158 8.31123ZM16.5056 1.34131C15.8463 0.685181 14.7739 0.685181 14.1151 1.34131L13.1793 2.27259L15.5697 4.65153L16.5056 3.72011C16.8248 3.40317 17.0006 2.98049 17.0006 2.53099C17.0006 2.08149 16.8248 1.65882 16.5056 1.34131Z"/>
</mask>
<path fill-rule="evenodd" clip-rule="evenodd" d="M13.6194 8.92426C13.2456 8.92426 12.9432 9.22576 12.9432 9.59709V14.9809C12.9432 15.3518 12.6404 15.6538 12.2671 15.6538H2.80008C2.42676 15.6538 2.12385 15.3518 2.12385 14.9809V5.55933C2.12385 5.1886 2.42676 4.88642 2.80008 4.88642H8.20985C8.58371 4.88642 8.88599 4.58487 8.88599 4.21346C8.88599 3.84199 8.58371 3.54042 8.20985 3.54042H2.80008C1.6816 3.54042 0.771484 4.44629 0.771484 5.55933V14.9809C0.771484 16.094 1.6816 16.9999 2.80008 16.9999H12.2671C13.3856 16.9999 14.2957 16.094 14.2957 14.9809V9.59709C14.2957 9.22505 13.9934 8.92426 13.6194 8.92426ZM7.11158 8.31123C7.06415 8.35829 7.03242 8.4181 7.01895 8.48269L6.54082 10.8624C6.51857 10.9727 6.55374 11.0864 6.63354 11.1665C6.69776 11.2304 6.7843 11.2647 6.87297 11.2647C6.89446 11.2647 6.9169 11.2628 6.93913 11.2581L9.32962 10.7824C9.39585 10.7688 9.4561 10.7373 9.50271 10.69L14.853 5.36551L12.4626 2.98671L7.11158 8.31123ZM16.5056 1.34131C15.8463 0.685181 14.7739 0.685181 14.1151 1.34131L13.1793 2.27259L15.5697 4.65153L16.5056 3.72011C16.8248 3.40317 17.0006 2.98049 17.0006 2.53099C17.0006 2.08149 16.8248 1.65882 16.5056 1.34131Z" fill="#323D41"/>
<path d="M7.11158 8.31123L7.81598 9.02103L7.81693 9.02009L7.11158 8.31123ZM7.01895 8.48269L6.03999 8.27848L6.03854 8.2857L7.01895 8.48269ZM6.54082 10.8624L7.52106 11.0602L7.52122 11.0594L6.54082 10.8624ZM6.63354 11.1665L5.92483 11.8721L5.92821 11.8754L6.63354 11.1665ZM6.93913 11.2581L6.74395 10.2772L6.73177 10.2798L6.93913 11.2581ZM9.32962 10.7824L9.52479 11.7632L9.53027 11.7621L9.32962 10.7824ZM9.50271 10.69L8.79728 9.98112L8.79033 9.98818L9.50271 10.69ZM14.853 5.36551L15.5584 6.07432L16.2706 5.3655L15.5583 4.65668L14.853 5.36551ZM12.4626 2.98671L13.168 2.27788L12.4626 1.57595L11.7572 2.27785L12.4626 2.98671ZM14.1151 1.34131L14.8205 2.05012L14.8208 2.04984L14.1151 1.34131ZM13.1793 2.27259L12.4739 1.56378L11.7617 2.27259L12.4739 2.9814L13.1793 2.27259ZM15.5697 4.65153L14.8643 5.36033L15.5697 6.06236L16.2751 5.36032L15.5697 4.65153ZM16.5056 3.72011L15.801 3.01045L15.8002 3.01131L16.5056 3.72011ZM13.6194 7.92426C12.6974 7.92426 11.9432 8.66935 11.9432 9.59709H13.9432C13.9432 9.78216 13.7937 9.92426 13.6194 9.92426V7.92426ZM11.9432 9.59709V14.9809H13.9432V9.59709H11.9432ZM11.9432 14.9809C11.9432 14.7957 12.0919 14.6538 12.2671 14.6538V16.6538C13.1889 16.6538 13.9432 15.9078 13.9432 14.9809H11.9432ZM12.2671 14.6538H2.80008V16.6538H12.2671V14.6538ZM2.80008 14.6538C2.97507 14.6538 3.12385 14.7955 3.12385 14.9809H1.12385C1.12385 15.908 1.87846 16.6538 2.80008 16.6538V14.6538ZM3.12385 14.9809V5.55933H1.12385V14.9809H3.12385ZM3.12385 5.55933C3.12385 5.7448 2.97512 5.88642 2.80008 5.88642V3.88642C1.87841 3.88642 1.12385 4.63239 1.12385 5.55933H3.12385ZM2.80008 5.88642H8.20985V3.88642H2.80008V5.88642ZM8.20985 5.88642C9.13223 5.88642 9.88599 5.14092 9.88599 4.21346H7.88599C7.88599 4.02883 8.03519 3.88642 8.20985 3.88642V5.88642ZM9.88599 4.21346C9.88599 3.28604 9.13233 2.54042 8.20985 2.54042V4.54042C8.0351 4.54042 7.88599 4.39794 7.88599 4.21346H9.88599ZM8.20985 2.54042H2.80008V4.54042H8.20985V2.54042ZM2.80008 2.54042C1.13381 2.54042 -0.228516 3.88952 -0.228516 5.55933H1.77148C1.77148 5.00305 2.2294 4.54042 2.80008 4.54042V2.54042ZM-0.228516 5.55933V14.9809H1.77148V5.55933H-0.228516ZM-0.228516 14.9809C-0.228516 16.6508 1.13377 17.9999 2.80008 17.9999V15.9999C2.22943 15.9999 1.77148 15.5373 1.77148 14.9809H-0.228516ZM2.80008 17.9999H12.2671V15.9999H2.80008V17.9999ZM12.2671 17.9999C13.9334 17.9999 15.2957 16.6508 15.2957 14.9809H13.2957C13.2957 15.5373 12.8378 15.9999 12.2671 15.9999V17.9999ZM15.2957 14.9809V9.59709H13.2957V14.9809H15.2957ZM15.2957 9.59709C15.2957 8.6679 14.5408 7.92426 13.6194 7.92426V9.92426C13.446 9.92426 13.2957 9.78221 13.2957 9.59709H15.2957ZM6.40718 7.60143C6.21669 7.79046 6.09233 8.02771 6.04002 8.27849L7.99788 8.68688C7.97251 8.8085 7.91161 8.92613 7.81598 9.02103L6.40718 7.60143ZM6.03854 8.2857L5.56041 10.6654L7.52122 11.0594L7.99936 8.67967L6.03854 8.2857ZM5.56057 10.6646C5.47074 11.1098 5.61464 11.5605 5.92483 11.8721L7.34224 10.461C7.49283 10.6123 7.5664 10.8355 7.52106 11.0602L5.56057 10.6646ZM5.92821 11.8754C6.18532 12.1313 6.52781 12.2647 6.87297 12.2647V10.2647C7.04079 10.2647 7.21019 10.3296 7.33886 10.4577L5.92821 11.8754ZM6.87297 12.2647C6.9533 12.2647 7.04623 12.2576 7.14649 12.2364L6.73177 10.2798C6.78757 10.268 6.83563 10.2647 6.87297 10.2647V12.2647ZM7.1343 12.2389L9.52479 11.7632L9.13445 9.80162L6.74396 10.2773L7.1343 12.2389ZM9.53027 11.7621C9.77821 11.7113 10.0204 11.5893 10.2151 11.3918L8.79033 9.98818C8.89175 9.88522 9.01349 9.82638 9.12896 9.80273L9.53027 11.7621ZM10.2081 11.3988L15.5584 6.07432L14.1476 4.6567L8.79731 9.98116L10.2081 11.3988ZM15.5583 4.65668L13.168 2.27788L11.7572 3.69553L14.1476 6.07433L15.5583 4.65668ZM11.7572 2.27785L6.40622 7.60237L7.81693 9.02009L13.1679 3.69557L11.7572 2.27785ZM17.211 0.632518C16.1617 -0.411749 14.4585 -0.412114 13.4094 0.632772L14.8208 2.04984C15.0892 1.78248 15.5309 1.78211 15.8002 2.0501L17.211 0.632518ZM13.4097 0.632498L12.4739 1.56378L13.8847 2.9814L14.8205 2.05012L13.4097 0.632498ZM12.4739 2.9814L14.8643 5.36033L16.2751 3.94272L13.8847 1.56379L12.4739 2.9814ZM16.2751 5.36032L17.211 4.4289L15.8002 3.01131L14.8643 3.94273L16.2751 5.36032ZM17.2101 4.42977C17.7186 3.92494 18.0006 3.24676 18.0006 2.53099H16.0006C16.0006 2.71423 15.931 2.88139 15.801 3.01045L17.2101 4.42977ZM18.0006 2.53099C18.0006 1.81507 17.7185 1.1373 17.2108 0.632284L15.8004 2.05033C15.9311 2.18034 16.0006 2.34791 16.0006 2.53099H18.0006Z" fill="#323D41" mask="url(#path-1-inside-1)"/>
</svg>
