<svg width="50" height="48" viewBox="0 0 50 48" fill="none" xmlns="http://www.w3.org/2000/svg">
<path fill-rule="evenodd" clip-rule="evenodd" d="M11.1782 1.74072H38.7781C44.301 1.74072 48.7781 6.21782 48.7781 11.7407V36.1296C48.7781 41.6524 44.301 46.1296 38.7781 46.1296H11.1782C5.6553 46.1296 1.17815 41.6524 1.17815 36.1296V11.7407C1.17815 6.21782 5.6553 1.74072 11.1782 1.74072Z" fill="#323D41"/>
<path fill-rule="evenodd" clip-rule="evenodd" d="M33.8312 26.7119C33.6267 26.4968 33.3785 26.3884 33.0857 26.3884H28.4024C28.2493 26.82 27.9917 27.1748 27.6294 27.452C27.2674 27.73 26.8639 27.8686 26.4175 27.8686H23.6101C23.1637 27.8686 22.7595 27.73 22.3981 27.452C22.0358 27.1748 21.7782 26.82 21.6251 26.3884H16.9417C16.6492 26.3884 16.4007 26.4968 16.1957 26.7119C15.9911 26.9282 15.8887 27.1902 15.8887 27.4985V31.198C15.8887 31.5063 15.9911 31.7687 16.1957 31.9843C16.4007 32.1998 16.6492 32.3078 16.9417 32.3078H33.0857C33.3785 32.3078 33.6267 32.1998 33.8319 31.9843C34.0364 31.7679 34.1389 31.5063 34.1389 31.198V27.4985C34.1389 27.1902 34.0364 26.9282 33.8312 26.7119ZM29.719 30.6081C29.5798 30.7551 29.4155 30.8278 29.2256 30.8278C29.0348 30.8278 28.8705 30.7551 28.7317 30.6081C28.5931 30.462 28.5234 30.2888 28.5234 30.0878C28.5234 29.8875 28.5931 29.7144 28.7317 29.5681C28.8705 29.4212 29.0348 29.3485 29.2256 29.3485C29.4155 29.3485 29.5798 29.4212 29.719 29.5681C29.8578 29.7144 29.9275 29.8875 29.9275 30.0878C29.9275 30.2888 29.8578 30.462 29.719 30.6081ZM32.5264 30.6081C32.3879 30.7551 32.2226 30.8278 32.0327 30.8278C31.8428 30.8278 31.6785 30.7551 31.5393 30.6081C31.4006 30.462 31.3313 30.2888 31.3313 30.0878C31.3313 29.8875 31.4006 29.7144 31.5393 29.5681C31.6785 29.4212 31.8428 29.3485 32.0327 29.3485C32.2226 29.3485 32.3879 29.4212 32.5264 29.5681C32.665 29.7144 32.7348 29.8875 32.7348 30.0878C32.7348 30.2888 32.6658 30.462 32.5264 30.6081ZM20.0763 20.0807H22.8979V15.366C22.8979 15.1839 22.9672 15.0253 23.1073 14.8923C23.2465 14.7595 23.4117 14.6924 23.6033 14.6924H26.4242C26.6158 14.6924 26.7809 14.7595 26.9202 14.8923C27.0597 15.0253 27.1296 15.1839 27.1296 15.366V20.0807H29.9512C30.2596 20.0807 30.4763 20.2214 30.6011 20.5013C30.7258 20.7752 30.6744 21.0175 30.4464 21.2279L25.5095 25.9428C25.3773 26.076 25.2122 26.1426 25.0135 26.1426C24.8153 26.1426 24.6502 26.076 24.5181 25.9428L19.5803 21.2279C19.3524 21.0175 19.3014 20.7752 19.4265 20.5013C19.5513 20.2208 19.7678 20.0807 20.0763 20.0807Z" fill="#F2F5FA"/>
</svg>
