<svg width="51" height="47" viewBox="0 0 51 47" fill="none" xmlns="http://www.w3.org/2000/svg">
<path fill-rule="evenodd" clip-rule="evenodd" d="M12 1.61107H39.5999C45.1228 1.61107 49.5999 6.08824 49.5999 11.6111V36C49.5999 41.5228 45.1228 46 39.5999 46H12C6.4771 46 1.99996 41.5228 1.99996 36V11.6111C1.99996 6.08824 6.4771 1.61107 12 1.61107Z" fill="#323D41"/>
<path fill-rule="evenodd" clip-rule="evenodd" d="M26.2331 23.0916C28.6742 23.0916 30.653 21.0397 30.653 18.5085C30.653 15.9774 28.6742 13.9255 26.2331 13.9255C23.7919 13.9255 21.8129 15.9774 21.8129 18.5085C21.8129 21.0397 23.7919 23.0916 26.2331 23.0916ZM26.233 26.2808C27.8529 26.2808 29.2653 25.3744 30.0349 24.0269C33.3993 25.5493 35.7531 29.0249 35.7531 33.0743H16.7129C16.7129 29.0249 19.0667 25.5493 22.4311 24.0269C23.2008 25.3744 24.6132 26.2808 26.233 26.2808Z" fill="#F2F5FA"/>
</svg>
