<svg width="51" height="47" viewBox="0 0 51 47" fill="none" xmlns="http://www.w3.org/2000/svg">
<path fill-rule="evenodd" clip-rule="evenodd" d="M12 1.61107H39.5999C45.1228 1.61107 49.5999 6.08824 49.5999 11.6111V36C49.5999 41.5228 45.1228 46 39.5999 46H12C6.4771 46 1.99996 41.5228 1.99996 36V11.6111C1.99996 6.08824 6.4771 1.61107 12 1.61107Z" fill="#333E42"/>
<path fill-rule="evenodd" clip-rule="evenodd" d="M34.7777 13.9997H15.2222V16.3744H34.7777V13.9997ZM36 25.873V23.4983L34.7777 17.5617H15.2222L14 23.4983V25.873H15.2222V32.997H27.4444V25.873H32.3333V32.997H34.7777V25.873H36ZM25 30.6223H17.6666V25.873H25V30.6223Z" fill="#F2F5FA"/>
</svg>
