<svg width="50" height="48" viewBox="0 0 50 48" fill="none" xmlns="http://www.w3.org/2000/svg">
<path fill-rule="evenodd" clip-rule="evenodd" d="M11.3563 1.74072H38.9563C44.4792 1.74072 48.9563 6.21782 48.9563 11.7407V36.1296C48.9563 41.6524 44.4792 46.1296 38.9563 46.1296H11.3563C5.8335 46.1296 1.35635 41.6524 1.35635 36.1296V11.7407C1.35635 6.21782 5.8335 1.74072 11.3563 1.74072Z" fill="#323D41"/>
<path fill-rule="evenodd" clip-rule="evenodd" d="M32.4673 14.9275L37.7923 18.8665C37.96 18.9899 38.0587 19.1856 38.0587 19.3917C38.0587 19.5981 37.96 19.7935 37.7923 19.917L32.4673 23.8561C32.2661 24.0057 31.9946 24.0293 31.7695 23.9178C31.5446 23.8062 31.4021 23.5789 31.4021 23.3307V21.3613H28.8593C26.5748 21.3613 24.522 22.6139 23.5007 24.6295L23.3438 24.9379C23.2293 25.1637 22.9963 25.3002 22.7487 25.3002C22.698 25.3002 22.6462 25.2951 22.5955 25.2832C22.2961 25.2137 22.083 24.9485 22.083 24.6437C22.083 20.6614 25.3672 17.4223 29.4053 17.4223H31.4021V15.4527C31.4021 15.2045 31.5446 14.9775 31.7709 14.8659C31.996 14.7543 32.2674 14.778 32.4673 14.9275ZM19.4204 30.5524H31.4021V25.341H34.0648V31.8653C34.0648 32.5913 33.4697 33.1783 32.7334 33.1783H18.0891C17.3542 33.1783 16.7578 32.5913 16.7578 31.8653V17.4223C16.7578 16.6975 17.3542 16.1092 18.0891 16.1092H23.4143V18.7353H19.4204V30.5524Z" fill="#F2F5FA"/>
</svg>
