<?xml version="1.0" standalone="no"?>
<!DOCTYPE svg PUBLIC "-//W3C//DTD SVG 20010904//EN"
 "http://www.w3.org/TR/2001/REC-SVG-20010904/DTD/svg10.dtd">
<svg version="1.0" xmlns="http://www.w3.org/2000/svg"
 width="200.000000pt" height="177.000000pt" viewBox="0 0 200.000000 177.000000"
 preserveAspectRatio="xMidYMid meet">

<g transform="translate(0.000000,177.000000) scale(0.100000,-0.100000)"
fill="#000000" stroke="none">
<path d="M390 395 c0 -150 4 -235 10 -235 6 0 10 39 10 98 0 118 16 153 85
183 58 26 110 14 153 -36 32 -36 40 -67 45 -185 2 -42 4 -28 5 40 2 89 -1 110
-18 138 -27 45 -76 72 -128 72 -47 0 -111 -25 -119 -47 -15 -37 -23 -2 -23 97
0 67 -4 110 -10 110 -6 0 -10 -85 -10 -235z"/>
<path d="M1174 585 c-4 -9 -2 -21 4 -27 15 -15 44 -1 40 19 -4 23 -36 29 -44
8z"/>
<path d="M4 235 c0 -181 1 -208 6 -112 l5 129 22 -30 c43 -59 128 -78 193 -43
37 19 80 73 80 100 0 9 -10 -3 -21 -27 -49 -98 -187 -109 -251 -20 -25 36 -35
107 -19 137 7 12 8 21 2 21 -5 0 -12 19 -14 43 -2 23 -3 -66 -3 -198z"/>
<path d="M95 460 c-11 -4 -31 -21 -45 -36 l-25 -29 30 27 c17 14 46 31 65 36
19 6 26 10 15 10 -11 1 -29 -3 -40 -8z"/>
<path d="M203 455 c22 -7 51 -24 65 -37 l27 -23 -20 24 c-23 27 -67 51 -92 51
-10 -1 -1 -7 20 -15z"/>
<path d="M860 452 c-39 -21 -80 -89 -80 -134 0 -132 172 -206 260 -113 31 33
41 32 34 -4 -4 -16 -1 -32 5 -35 20 -13 14 183 -7 224 -37 74 -134 102 -212
62z m112 -2 c20 -6 50 -26 67 -46 57 -64 35 -171 -42 -207 -43 -21 -79 -22
-115 -3 -49 26 -75 62 -79 113 -5 62 22 107 80 133 50 23 43 22 89 10z"/>
<path d="M1177 464 c-9 -9 -9 -266 -1 -288 9 -23 33 -19 39 7 3 12 4 80 3 152
-3 108 -6 130 -18 133 -9 1 -19 0 -23 -4z"/>
<path d="M1302 318 c3 -128 5 -153 18 -153 12 0 16 20 20 96 6 106 19 138 69
159 44 18 95 5 125 -31 23 -27 26 -39 26 -114 0 -91 5 -115 25 -115 19 0 25
24 25 98 0 90 -13 132 -55 172 -45 44 -125 54 -179 22 -33 -20 -34 -20 -39 -1
-3 10 -12 19 -21 19 -15 0 -16 -17 -14 -152z"/>
<path d="M1762 451 c-102 -65 -96 -223 12 -272 52 -23 80 -23 133 0 98 45 118
171 39 249 -30 31 -42 36 -93 39 -46 3 -65 0 -91 -16z m151 -71 c73 -80 -18
-194 -118 -148 -53 24 -70 96 -34 142 43 54 105 57 152 6z"/>
<path d="M301 354 c0 -11 3 -14 6 -6 3 7 2 16 -1 19 -3 4 -6 -2 -5 -13z"/>
<path d="M311 314 c0 -11 3 -14 6 -6 3 7 2 16 -1 19 -3 4 -6 -2 -5 -13z"/>
</g>
</svg>
