<svg xmlns="http://www.w3.org/2000/svg" height="512pt" version="1.1" viewBox="-35 0 512 512" width="512pt">
<g id="surface1">
<path d="M 17.65625 141.242188 L 158.894531 141.242188 C 168.648438 141.242188 176.550781 133.335938 176.550781 123.585938 C 176.550781 113.835938 168.648438 105.933594 158.894531 105.933594 L 17.65625 105.933594 C 7.933594 106.003906 0.0703125 113.867188 0 123.585938 C 0.0273438 133.324219 7.917969 141.210938 17.65625 141.242188 Z M 17.65625 141.242188 " style=" stroke:none;fill-rule:nonzero;fill:rgb(25.490196%,46.27451%,61.960784%);fill-opacity:1;" />
<path d="M 264.828125 388.414062 C 264.855469 398.152344 272.746094 406.039062 282.480469 406.066406 L 423.722656 406.066406 C 433.445312 405.996094 441.308594 398.132812 441.378906 388.414062 C 441.351562 378.675781 433.460938 370.789062 423.722656 370.757812 L 282.480469 370.757812 C 272.742188 370.789062 264.855469 378.675781 264.828125 388.414062 Z M 264.828125 388.414062 " style=" stroke:none;fill-rule:nonzero;fill:rgb(25.490196%,46.27451%,61.960784%);fill-opacity:1;" />
<path d="M 220.6875 344.277344 C 230.429688 344.246094 238.316406 336.359375 238.34375 326.621094 L 238.34375 185.378906 C 238.273438 175.660156 230.410156 167.796875 220.6875 167.722656 C 210.949219 167.753906 203.0625 175.640625 203.035156 185.378906 L 203.035156 326.621094 C 203.0625 336.359375 210.949219 344.246094 220.6875 344.277344 Z M 220.6875 344.277344 " style=" stroke:none;fill-rule:nonzero;fill:rgb(25.490196%,46.27451%,61.960784%);fill-opacity:1;" />
<path d="M 17.65625 0 L 88.273438 0 L 88.273438 105.929688 L 17.65625 105.929688 Z M 17.65625 0 " style=" stroke:none;fill-rule:nonzero;fill:rgb(35.294118%,66.666667%,90.588235%);fill-opacity:1;" />
<path d="M 88.273438 0 L 158.894531 0 L 158.894531 105.929688 L 88.273438 105.929688 Z M 88.273438 0 " style=" stroke:none;fill-rule:nonzero;fill:rgb(47.058824%,72.54902%,92.156863%);fill-opacity:1;" />
<path d="M 282.480469 406.070312 L 353.101562 406.070312 L 353.101562 512 L 282.480469 512 Z M 282.480469 406.070312 " style=" stroke:none;fill-rule:nonzero;fill:rgb(35.294118%,66.666667%,90.588235%);fill-opacity:1;" />
<path d="M 353.101562 406.070312 L 423.722656 406.070312 L 423.722656 512 L 353.101562 512 Z M 353.101562 406.070312 " style=" stroke:none;fill-rule:nonzero;fill:rgb(47.058824%,72.54902%,92.156863%);fill-opacity:1;" />
<path d="M 282.480469 264.828125 L 238.34375 264.828125 L 238.34375 326.621094 L 264.828125 326.621094 C 274.578125 326.621094 282.480469 334.523438 282.480469 344.277344 L 282.480469 370.757812 L 353.101562 370.757812 L 353.101562 335.449219 C 353.101562 296.445312 321.484375 264.828125 282.480469 264.828125 Z M 282.480469 264.828125 " style=" stroke:none;fill-rule:nonzero;fill:rgb(35.294118%,66.666667%,90.588235%);fill-opacity:1;" />
<path d="M 423.722656 291.308594 C 423.722656 232.804688 376.296875 185.378906 317.792969 185.378906 L 238.34375 185.378906 L 238.34375 264.828125 L 282.480469 264.828125 C 321.484375 264.828125 353.101562 296.445312 353.101562 335.449219 L 353.101562 370.757812 L 423.722656 370.757812 Z M 423.722656 291.308594 " style=" stroke:none;fill-rule:nonzero;fill:rgb(47.058824%,72.54902%,92.156863%);fill-opacity:1;" />
<path d="M 176.550781 185.378906 C 166.800781 185.378906 158.894531 177.476562 158.894531 167.722656 L 158.894531 141.242188 L 88.277344 141.242188 L 88.277344 194.207031 C 88.277344 233.210938 119.894531 264.828125 158.894531 264.828125 L 203.035156 264.828125 L 203.035156 185.378906 Z M 176.550781 185.378906 " style=" stroke:none;fill-rule:nonzero;fill:rgb(47.058824%,72.54902%,92.156863%);fill-opacity:1;" />
<path d="M 88.273438 194.207031 L 88.273438 141.242188 L 17.65625 141.242188 L 17.65625 220.691406 C 17.65625 279.195312 65.082031 326.621094 123.585938 326.621094 L 203.035156 326.621094 L 203.035156 264.828125 L 158.894531 264.828125 C 119.894531 264.828125 88.273438 233.210938 88.273438 194.207031 Z M 88.273438 194.207031 " style=" stroke:none;fill-rule:nonzero;fill:rgb(35.294118%,66.666667%,90.588235%);fill-opacity:1;" />
</g>
</svg>