<?xml version="1.0"?>
<svg xmlns="http://www.w3.org/2000/svg" xmlns:xlink="http://www.w3.org/1999/xlink" xmlns:svgjs="http://svgjs.com/svgjs" version="1.1" width="512" height="512" x="0" y="0" viewBox="0 0 512 512" style="enable-background:new 0 0 512 512" xml:space="preserve" class=""><g><linearGradient xmlns="http://www.w3.org/2000/svg" id="a" gradientUnits="userSpaceOnUse" x1="-27.283" x2="456.202" y1="447.014" y2="-36.471" data-name="New Gradient Swatch 1"><stop stop-opacity="1" stop-color="#003f8a" offset="0"/><stop stop-opacity="1" stop-color="#00d7df" offset="0.518"/></linearGradient><linearGradient xmlns="http://www.w3.org/2000/svg" xmlns:xlink="http://www.w3.org/1999/xlink" id="b" x1="100.852" x2="584.337" xlink:href="#a" y1="575.148" y2="91.663"/><g xmlns="http://www.w3.org/2000/svg"><path d="m176 264h-24v-14.46a48.012 48.012 0 0 0 24-41.54v-40c0-.23-.01-.45-.03-.68a49.189 49.189 0 0 0 -13.93-32.66 47.093 47.093 0 0 0 -34.04-14.66 48.051 48.051 0 0 0 -48 48v40a48.012 48.012 0 0 0 24 41.54v14.46h-24a48.051 48.051 0 0 0 -48 48v72a8 8 0 0 0 8 8h176a8 8 0 0 0 8-8v-72a48.051 48.051 0 0 0 -48-48zm-80-96a32.042 32.042 0 0 1 32-32c12.65 0 23.86 8.04 29.01 19.34-19.84 8.84-36.12 11.77-46.71 12.62a90.9 90.9 0 0 1 -14.3.07zm0 40v-23.92c1.88.12 3.99.2 6.35.2 12.94 0 32.94-2.34 57.65-12.79v36.51a32 32 0 0 1 -64 0zm40 47.32v16.68a8 8 0 0 1 -16 0v-16.68a47.4 47.4 0 0 0 16 0zm72 120.68h-16v-56a8 8 0 0 0 -16 0v56h-96v-56a8 8 0 0 0 -16 0v56h-16v-64a32.036 32.036 0 0 1 32-32h25.38a23.99 23.99 0 0 0 45.24 0h25.38a32.042 32.042 0 0 1 32 32z" fill="url(#a)" data-original="url(#a)" style="" class=""/><path d="m392 104h80a8 8 0 0 0 8-8v-80a8 8 0 0 0 -8-8h-80a8 8 0 0 0 -8 8v32h-56a8 8 0 0 0 -8 8v192h-88a8 8 0 0 0 0 16h88v192a8 8 0 0 0 8 8h56v32a8 8 0 0 0 8 8h80a8 8 0 0 0 8-8v-80a8 8 0 0 0 -8-8h-80a8 8 0 0 0 -8 8v32h-48v-184h48v32a8 8 0 0 0 8 8h80a8 8 0 0 0 8-8v-80a8 8 0 0 0 -8-8h-80a8 8 0 0 0 -8 8v32h-48v-184h48v32a8 8 0 0 0 8 8zm8 320h64v64h-64zm0-200h64v64h-64zm0-200h64v64h-64z" fill="url(#b)" data-original="url(#b)" style="" class=""/></g></g></svg>
