<?xml version="1.0"?>
<svg xmlns="http://www.w3.org/2000/svg" xmlns:xlink="http://www.w3.org/1999/xlink" xmlns:svgjs="http://svgjs.com/svgjs" version="1.1" width="512" height="512" x="0" y="0" viewBox="0 0 64 64" style="enable-background:new 0 0 512 512" xml:space="preserve" class=""><g><g xmlns="http://www.w3.org/2000/svg" id="Layer_6" data-name="Layer 6"><path d="m20.232 20.347a11.906 11.906 0 0 0 1.788 4.314 1 1 0 0 1 -.02 1.139l-1.424 2 1.631 1.63 1.993-1.43a1 1 0 0 1 1.137-.018 11.906 11.906 0 0 0 4.313 1.787 1 1 0 0 1 .792.816l.4 2.417h2.306l.4-2.417a1 1 0 0 1 .792-.816 11.906 11.906 0 0 0 4.313-1.787 1 1 0 0 1 1.147.018l1.993 1.424 1.631-1.63-1.424-1.994a1 1 0 0 1 -.018-1.136 11.906 11.906 0 0 0 1.788-4.314 1 1 0 0 1 .816-.791l2.416-.4v-2.312l-2.416-.4a1 1 0 0 1 -.816-.791 11.887 11.887 0 0 0 -1.79-4.316 1 1 0 0 1 .02-1.14l1.424-1.995-1.631-1.63-1.993 1.425a1 1 0 0 1 -1.137.018 11.886 11.886 0 0 0 -4.313-1.787 1 1 0 0 1 -.792-.816l-.405-2.415h-2.306l-.4 2.417a1 1 0 0 1 -.792.816 11.886 11.886 0 0 0 -4.316 1.787 1 1 0 0 1 -1.139-.02l-1.991-1.422-1.631 1.63 1.422 1.992a1 1 0 0 1 .018 1.137 11.887 11.887 0 0 0 -1.788 4.313 1 1 0 0 1 -.816.791l-2.416.4v2.306l2.416.4a1 1 0 0 1 .818.8zm11.768-10.347a8 8 0 1 1 -8 8 8.009 8.009 0 0 1 8-8z" fill="#2a2929" data-original="#000000" style="" class=""/><circle cx="32" cy="18" r="6" fill="#2a2929" data-original="#000000" style="" class=""/><path d="m53 20h6v-12h3l-6-6-6 6h3z" fill="#2a2929" data-original="#000000" style="" class=""/><path d="m14 28h-3v-12h-6v12h-3l6 6z" fill="#2a2929" data-original="#000000" style="" class=""/><path d="m23 48h-11v13h19v-20.586l-7.293 7.293a1 1 0 0 1 -.707.293z" fill="#2a2929" data-original="#000000" style="" class=""/><path d="m34.414 39 7 7h18.172l-7-7z" fill="#2a2929" data-original="#000000" style="" class=""/><path d="m29.586 39h-18.172l-7 7h18.172z" fill="#2a2929" data-original="#000000" style="" class=""/><path d="m40.293 47.707-7.293-7.293v20.586h19v-13h-11a1 1 0 0 1 -.707-.293z" fill="#2a2929" data-original="#000000" style="" class=""/></g></g></svg>
