<svg id="Capa_1" enable-background="new 0 0 512 512" height="512" viewBox="0 0 512 512" width="512" xmlns="http://www.w3.org/2000/svg"><g><g><path clip-rule="evenodd" d="m324.754 410.844-74.58-18.339-62.958 18.339-17.258 57.791 79.516 17.521 92.568-17.521z" fill="#beb9dd" fill-rule="evenodd"/></g><g><path clip-rule="evenodd" d="m342.042 468.693h-172.084-26.661c-11.914 0-21.638 9.753-21.638 21.639v15.185c0 3.563 2.891 6.483 6.453 6.483h255.745c3.563 0 6.483-2.92 6.483-6.483v-15.185c0-11.885-9.753-21.639-21.667-21.639z" fill="#dddaec" fill-rule="evenodd"/></g><g><path clip-rule="evenodd" d="m490.53 361.726-232.822-17.258-236.238 17.258v31.421c0 9.724 7.972 17.696 17.696 17.696h148.051 137.538 148.08c9.724 0 17.696-7.972 17.696-17.696v-31.421z" fill="#dddaec" fill-rule="evenodd"/></g><g><path clip-rule="evenodd" d="m39.166 85.533c-9.753 0-17.696 7.972-17.696 17.696v258.497h469.06v-258.497c0-9.724-7.972-17.696-17.725-17.696s-423.886 0-433.639 0z" fill="#9fd4fe" fill-rule="evenodd"/></g><g><path clip-rule="evenodd" d="m73.185 303.585h365.629c2.57 0 4.701-2.132 4.701-4.702v-213.35-52.476h-375.06v52.476 213.35c0 2.57 2.131 4.702 4.73 4.702z" fill="#eff6ff" fill-rule="evenodd"/></g><g><path clip-rule="evenodd" d="m68.455 43.365h375.061 8.439c3.825 0 6.979-3.125 6.979-6.95v-29.465c0-3.825-3.154-6.95-6.979-6.95h-391.939c-3.825 0-6.95 3.125-6.95 6.95v29.465c0 3.825 3.125 6.95 6.95 6.95z" fill="#aa7550" fill-rule="evenodd"/></g><g><path clip-rule="evenodd" d="m438.815 303.585h-61.702c-7.125 17.025-16.411 33.028-27.508 47.687-2.716 3.563-5.519 7.067-8.439 10.454h149.364v-258.497c0-9.724-7.972-17.696-17.725-17.696h-29.289v213.35c0 2.57-2.132 4.702-4.701 4.702z" fill="#85beef" fill-rule="evenodd"/></g><g><path clip-rule="evenodd" d="m179.449 436.921h112.133c8.381 0 8.79 4.877 11.126 12.703l5.694 19.069h33.348l.263-.058-17.258-57.791h-137.539z" fill="#a7a2d3" fill-rule="evenodd"/></g><g><path clip-rule="evenodd" d="m398.721 361.726h-57.556c-9.724 12.966-28.267 38.78-43.919 49.118h175.587c9.724 0 17.696-7.972 17.696-17.696v-31.421h-91.808z" fill="#beb9dd" fill-rule="evenodd"/></g><g><path clip-rule="evenodd" d="m401.466 6.95v26.107 3.358c0 3.825-3.125 6.95-6.95 6.95h49 8.439c3.825 0 6.979-3.125 6.979-6.95v-29.465c0-3.825-3.154-6.95-6.979-6.95h-57.439c3.826 0 6.95 3.125 6.95 6.95z" fill="#935d38" fill-rule="evenodd"/></g><g><path clip-rule="evenodd" d="m443.516 43.365h-138.18-236.881v26.165h195.415c118.411 0 110.293 190.456 64.71 234.055h110.235c2.57 0 4.701-2.132 4.701-4.702v-213.35z" fill="#d9eeff" fill-rule="evenodd"/></g><g><path clip-rule="evenodd" d="m339.413 469.131c9.841 2.015 17.287 10.805 17.287 21.201v15.185c0 3.533-2.862 6.454-6.395 6.483h33.552c3.563 0 6.483-2.92 6.483-6.483v-15.185c0-11.885-9.753-21.639-21.667-21.639h-26.632-.292-6.687c1.49 0 2.95.146 4.351.438z" fill="#beb9dd" fill-rule="evenodd"/></g><path d="m268.982 178.742-15.71-15.71c-3.017-3.016-7.909-3.016-10.927 0-3.018 3.018-3.018 7.909 0 10.928l6.463 6.463h-107.087c-.846 0-1.56-.714-1.56-1.559v-47.104c0-4.268-3.459-7.726-7.726-7.726s-7.726 3.459-7.726 7.726v47.104c0 9.38 7.632 17.012 17.013 17.012h107.058l-6.434 6.434c-3.018 3.018-3.018 7.909 0 10.928 1.509 1.508 3.486 2.263 5.463 2.263s3.955-.755 5.463-2.263l15.681-15.681c2.497-2.454 3.928-5.878 3.928-9.406 0-3.553-1.385-6.894-3.899-9.409z" fill="#375e7d"/><path d="m144.85 244.363 7.912-7.912c3.018-3.017 3.018-7.909 0-10.927-3.017-3.016-7.909-3.017-10.927.001l-7.911 7.911-7.911-7.911c-3.017-3.017-7.909-3.018-10.927-.001s-3.018 7.909 0 10.927l7.912 7.912-7.912 7.912c-3.018 3.017-3.018 7.909 0 10.927 1.509 1.508 3.486 2.263 5.463 2.263s3.955-.755 5.463-2.264l7.911-7.911 7.911 7.911c1.509 1.509 3.486 2.264 5.463 2.264s3.955-.755 5.463-2.263c3.018-3.017 3.018-7.909 0-10.927z" fill="#375e7d"/><path d="m224.307 124.634 7.912-7.912c3.018-3.017 3.018-7.909 0-10.927-3.017-3.016-7.909-3.017-10.927.001l-7.911 7.911-7.911-7.911c-3.017-3.017-7.909-3.018-10.927-.001s-3.018 7.909 0 10.927l7.912 7.912-7.912 7.912c-3.018 3.017-3.018 7.909 0 10.927 1.509 1.508 3.486 2.263 5.463 2.263s3.955-.755 5.463-2.264l7.911-7.911 7.911 7.911c1.509 1.509 3.486 2.264 5.463 2.264s3.955-.755 5.463-2.263c3.018-3.017 3.018-7.909 0-10.927z" fill="#eb5468"/><path d="m211.808 244.363 7.912-7.912c3.018-3.017 3.017-7.909 0-10.927-3.017-3.016-7.909-3.017-10.927.001l-7.911 7.911-7.911-7.911c-3.017-3.017-7.909-3.018-10.927-.001-3.017 3.017-3.018 7.909 0 10.927l7.912 7.912-7.912 7.912c-3.018 3.017-3.017 7.909 0 10.927 1.509 1.508 3.486 2.263 5.463 2.263s3.955-.755 5.463-2.264l7.911-7.911 7.911 7.911c1.509 1.509 3.486 2.264 5.463 2.264s3.955-.755 5.463-2.263c3.017-3.017 3.018-7.909 0-10.927z" fill="#375e7d"/><g><path clip-rule="evenodd" d="m290.793 142.156c-.058 37.495 26.982 41.993 26.982 76.889h28.413 28.413c0-34.896 27.011-39.394 26.982-76.889-.029-37.291-27.712-55.922-55.395-55.922s-55.365 18.631-55.395 55.922z" fill="#ffd772" fill-rule="evenodd"/></g><g><path clip-rule="evenodd" d="m378.076 142.156c.058 37.495-26.982 41.993-26.982 76.889h23.507c0-34.896 27.011-39.394 26.982-76.889-.029-37.291-27.712-55.922-55.395-55.922-3.942 0-7.884.35-11.739 1.11 23.244 4.555 43.598 22.835 43.627 54.812z" fill="#fbba58" fill-rule="evenodd"/></g><path d="m358.424 144.446h-24.471c-4.267 0-7.726 3.458-7.726 7.726s3.459 7.727 7.726 7.727h4.509v59.146c0 4.268 3.459 7.726 7.726 7.726s7.726-3.459 7.726-7.726v-59.146h4.509c4.267 0 7.726-3.459 7.726-7.727.001-4.268-3.458-7.726-7.725-7.726z" fill="#375e7d"/><g><path clip-rule="evenodd" d="m132.435 131.76c12.177 0 22.047-9.87 22.047-22.048 0-12.177-9.87-22.048-22.047-22.048s-22.047 9.87-22.047 22.048c0 12.177 9.87 22.048 22.047 22.048z" fill="#3bc3a4" fill-rule="evenodd"/></g><g><path clip-rule="evenodd" d="m346.188 219.045h-28.413v20.85c0 11.447 9.374 20.85 20.85 20.85h15.126c11.447 0 20.85-9.403 20.85-20.85v-20.85z" fill="#beb9dd" fill-rule="evenodd"/></g><g><path clip-rule="evenodd" d="m374.601 219.045h-23.507v20.85c0 10.016-7.184 18.456-16.674 20.412 1.372.292 2.774.438 4.205.438h15.126c11.447 0 20.85-9.403 20.85-20.85z" fill="#a7a2d3" fill-rule="evenodd"/></g></g></svg>